# AST/ASF file generated using VICON BodyLanguage
# -----------------------------------------------
:version 1.10
:name VICON
:units
  mass 1.0
  length 0.45
  angle deg
:documentation
   .ast/.asf automatically generated from VICON data using
   VICON BodyBuilder and BodyLanguage model FoxedUp or BRILLIANT.MOD
:root
   order TX TY TZ RX RY RZ
   axis XYZ
   position 0 0 0  
   orientation 0 0 0 
:bonedata
  begin
     id 1 
     name lhipjoint
     direction 0.573633 -0.743009 0.344793 
     length 2.46257 
     axis 0 0 0  XYZ
  end
  begin
     id 2 
     name lfemur
     direction 0.34202 -0.939693 0  
     length 7.3842  
     axis 0 0 20  XYZ
    dof rx ry rz
    limits (-160.0 20.0)
           (-70.0 70.0)
           (-60.0 70.0)
  end
  begin
     id 3 
     name ltibia
     direction 0.34202 -0.939693 0   
     length 7.50407   
     axis 0 0 20   XYZ
    dof rx
    limits (-10.0 170.0)
  end
  begin
     id 4 
     name lfoot
     direction 0.110749 -0.304281 0.946123   
     length 1.95925   
     axis -90 7.62852e-016 20   XYZ
    dof rx rz
    limits (-45.0 90.0)
           (-70.0 20.0)
  end
  begin
     id 5 
     name ltoes
     direction 1.53554e-011 -4.21843e-011 1   
     length 0.978318   
     axis -90 7.62852e-016 20   XYZ
    dof rx
    limits (-90.0 20.0)
  end
  begin
     id 6 
     name rhipjoint
     direction -0.488109 -0.791693 0.367385   
     length 2.31113  
     axis 0 0 0  XYZ 
  end
  begin
     id 7 
     name rfemur
     direction -0.34202 -0.939693 0   
     length 7.40965   
     axis 0 0 -20   XYZ
    dof rx ry rz
    limits (-160.0 20.0)
           (-70.0 70.0)
           (-70.0 60.0)
  end
  begin
     id 8 
     name rtibia
     direction -0.34202 -0.939693 0   
     length 7.55548   
     axis 0 0 -20   XYZ
    dof rx
    limits (-10.0 170.0)
 end
 begin
     id 9 
     name rfoot
     direction -0.127594 -0.350561 0.927808   
     length 2.07199  
     axis -90 -7.62852e-016 -20   XYZ
    dof rx rz
    limits (-45.0 90.0)
           (-20.0 70.0)
  end
  begin
     id 10 
     name rtoes
     direction -1.53542e-011 -4.21909e-011 1   
     length 1.02667   
     axis -90 -7.62852e-016 -20   XYZ
    dof rx
    limits (-90.0 20.0)
  end
  begin
     id 11 
     name lowerback
     direction -0.0103342 0.997298 -0.0727278   
     length 2.02836   
     axis 0 0 0   XYZ
    dof rx ry rz
    limits (-20.0 45.0)
           (-30.0 30.0)
           (-30.0 30.0)
  end
  begin
     id 12 
     name upperback
     direction 0.0171146 0.999786 -0.011606   
     length 2.03179   
     axis 0 0 0   XYZ
    dof rx ry rz
    limits (-20.0 45.0)
           (-30.0 30.0)
           (-30.0 30.0)
  end
  begin
     id 13 
     name thorax
     direction 0.0216927 0.999513 0.0224343   
     length 2.03882   
     axis 0 0 0   XYZ
    dof rx ry rz
    limits (-20.0 45.0)
           (-30.0 30.0)
           (-30.0 30.0)
  end
  begin
     id 14 
     name lowerneck
     direction 0.000989287 0.993907 0.110221   
     length 1.75428   
     axis 0 0 0   XYZ
    dof rx ry rz
    limits (-20.0 45.0)
           (-30.0 30.0)
           (-30.0 30.0)
  end
  begin
     id 15 
     name upperneck
     direction -0.0172474 0.994813 -0.100253   
     length 1.77058   
     axis 0 0 0   XYZ
    dof rx ry rz
    limits (-20.0 45.0)
           (-30.0 30.0)
           (-30.0 30.0)
  end
  begin
     id 16
     name head
     direction -0.00486455 0.99894 -0.0457663  
     length 1.77427  
     axis 0 0 0   XYZ
    dof rx ry rz
    limits (-20.0 45.0)
           (-30.0 30.0)
           (-30.0 30.0)
  end
  begin
     id 17 
     name lclavicle
     direction 0.927314 0.333734 -0.169441  
     length 3.97584  
     axis 0 0 0   XYZ
    dof ry rz
    limits (-20.0 10.0)
           (0.0 20.0)
  end
  begin
     id 18 
     name lhumerus
     direction 1 -4.48965e-011 -3.25313e-028   
     length 4.76468   
     axis 180 -30 -90   XYZ
    dof rx ry rz
    limits (-60.0 90.0)
           (-90.0 90.0)
           (-90.0 90.0)
  end
  begin
     id 19
     name lradius
     direction 1 -4.48969e-011 -2.8465e-028   
     length 3.52712   
     axis -180 -30 -90   XYZ
    dof rx
    limits (-10.0 170.0)
  end
  begin
     id 20
     name lwrist
     direction 1 -4.4896e-011 -7.78665e-028   
     length 1.76356   
     axis 1.91374e-015 90 90   XYZ
    dof ry
    limits (-180.0 0.0)
 end
  begin
     id 21 
     name lhand
     direction 1 -4.48959e-011 -1.55733e-027   
     length 0.859564   
     axis 9.9371e-016 90 90   XYZ
    dof rx rz
    limits (-90.0 90.0)
           (-45.0 45.0)
  end
  begin
     id 22 
     name lfingers
     direction 1 -4.48965e-011 -3.11466e-027   
     length 0.693002   
     axis 1.98742e-015 90 90   XYZ
    dof rx
    limits (0.0 90.0)
  end
  begin
     id 23
     name lthumb
     direction 0.707107 -6.34948e-011 0.707107   
     length 0.995017   
     axis -90 45 2.85299e-015   XYZ
    dof rx rz
    limits (-45.0 45.0)
           (-45.0 45.0)
  end
  begin
     id 24 
     name rclavicle
     direction -0.899388 0.348209 -0.264294   
     length 3.68366  
     axis 0 0 0   XYZ 
    dof ry rz
    limits (-10.0 20.0)
           (-20.0 0.0)
  end
  begin
     id 25 
     name rhumerus
     direction -1 -4.48965e-011 -3.01536e-027  
     length 4.90577   
     axis 180 30 90   XYZ
    dof rx ry rz
    limits (-90.0 60.0)
           (-90.0 90.0)
           (-90.0 90.0)
  end
  begin
     id 26 
     name rradius
     direction -1 -4.48966e-011 3.93291e-027   
     length 3.42692   
     axis -180 30 90   XYZ
    dof rx
    limits (-10.0 170.0)
  end
  begin
     id 27 
     name rwrist
     direction -1 -4.48969e-011 -7.78665e-028   
     length 1.71346   
     axis 1.91374e-015 -90 -90   XYZ
    dof ry
    limits (-180.0 0.0)
  end
  begin
     id 28
     name rhand
     direction -1 -4.48967e-011 -1.55733e-027   
     length 0.740957   
     axis 9.9371e-016 -90 -90   XYZ
    dof rx rz
    limits (-90.0 90.0)
           (-45.0 45.0)
  end
  begin
     id 29
     name rfingers
     direction -1 -4.48949e-011 -3.11466e-027   
     length 0.597378   
     axis 1.98742e-015 -90 -90   XYZ
    dof rx
    limits (0.0 90.0)
  end
  begin
     id 30
     name rthumb
     direction -0.707107 -6.34931e-011 0.707107   
     length 0.857719   
     axis -90 -45 -2.85299e-015   XYZ
    dof rx rz
    limits (-45.0 45.0)
           (-45.0 45.0)
  end
:hierarchy
  begin
    root lhipjoint rhipjoint lowerback
    lhipjoint lfemur
    lfemur ltibia
    ltibia lfoot
    lfoot ltoes
    rhipjoint rfemur
    rfemur rtibia
    rtibia rfoot
    rfoot rtoes
    lowerback upperback
    upperback thorax
    thorax lowerneck lclavicle rclavicle
    lowerneck upperneck
    upperneck head
    lclavicle lhumerus
    lhumerus lradius
    lradius lwrist
    lwrist lhand lthumb
    lhand lfingers
    rclavicle rhumerus
    rhumerus rradius
    rradius rwrist
    rwrist rhand rthumb
    rhand rfingers
  end

#!OML:ASF E:\I on waltz\AllaLogoMonkeySwing\Project 1\Capture day 1\Session 1\Subject1.ASF
:FULLY-SPECIFIED
:DEGREES
873
root -0.313319 11.954 13.5203 -14.4051 -3.11661 -2.28995
lowerback 26.6382 1.81099 -1.32484
upperback 6.51355 2.11396 1.57513
thorax -7.60951 1.02691 1.82002
lowerneck -6.81006 6.18435 4.44413
upperneck 27.6112 10.119 -7.58293
head 10.5738 4.30827 -2.32089
rclavicle 1.7844e-015 2.2736e-015
rhumerus -3.42812 1.33987 -82.9513
rradius 34.6821
rwrist -0.258196
rhand -12.3612 -396.344
rfingers 7.12502
rthumb 13.7089 -65.8726
lclavicle 1.7844e-015 2.2736e-015
lhumerus -28.1829 16.4682 88.5925
lradius 46.5491
lwrist 7.71913
lhand -19.6921 -21.9089
lfingers 7.12502
lthumb 6.63704 7.96708
rfemur -49.8208 -10.8481 21.2607
rtibia 105.221
rfoot -32.3286 -6.17444
rtoes 16.9369
lfemur -48.3207 10.3511 -12.6521
ltibia 111.22
lfoot -31.4537 -8.25311
ltoes -28.2892
874
root -0.327907 12.0798 13.7563 -13.9634 -2.7756 -2.23693
lowerback 26.5397 1.81964 -1.86661
upperback 6.59716 1.97828 1.53299
thorax -7.47566 0.967582 2.1318
lowerneck -7.27677 6.71483 4.54811
upperneck 27.6724 10.9689 -7.96493
head 10.7866 4.64876 -2.35185
rclavicle -7.36124e-015 -6.11263e-015
rhumerus -3.06426 2.43307 -82.6767
rradius 37.1514
rwrist 0.382322
rhand -13.5684 -396.714
rfingers 7.12502
rthumb 12.5452 -66.3178
lclavicle -7.36124e-015 -6.11263e-015
lhumerus -28.3753 15.1709 89.4287
lradius 44.918
lwrist 3.24848
lhand -15.9294 -20.5425
lfingers 7.12502
lthumb 10.2683 9.18682
rfemur -48.4076 -11.1859 21.1947
rtibia 104.561
rfoot -33.5282 -6.96378
rtoes 17.2316
lfemur -47.0008 10.123 -12.6723
ltibia 110.474
lfoot -31.9293 -8.21117
ltoes -28.2036
875
root -0.343142 12.2541 13.978 -13.0946 -2.4707 -2.35092
lowerback 26.0626 1.83038 -2.05283
upperback 6.45143 1.94363 1.417
thorax -7.39962 0.955315 2.12756
lowerneck -7.13967 7.18162 4.96252
upperneck 27.4795 11.7151 -8.5346
head 10.8141 4.97918 -2.53202
rclavicle 3.23025e-015 5.86415e-015
rhumerus -3.36471 2.79044 -82.5412
rradius 39.4804
rwrist 0.622955
rhand -14.4178 -395.787
rfingers 7.12502
rthumb 11.7262 -65.4393
lclavicle 3.23025e-015 5.86415e-015
lhumerus -29.0915 13.3156 90.0476
lradius 43.9544
lwrist 0.00447979
lhand -13.4765 -20.199
lfingers 7.12502
lthumb 12.6339 9.39897
rfemur -47.2294 -11.3078 21.3794
rtibia 103.351
rfoot -34.4309 -7.70091
rtoes 17.5617
lfemur -45.9137 9.74132 -12.4863
ltibia 109.202
lfoot -32.4993 -8.48118
ltoes -28.2083
876
root -0.357294 12.465 14.1861 -11.9532 -2.18604 -2.55789
lowerback 25.3649 1.90313 -1.90999
upperback 6.1071 2.07909 1.27739
thorax -7.42967 1.02381 1.85642
lowerneck -6.46739 7.49435 5.40236
upperneck 27.0201 12.2499 -9.20242
head 10.6335 5.23535 -2.79739
rclavicle 5.11871e-015 -1.76918e-014
rhumerus -4.39587 2.52693 -82.3496
rradius 41.8614
rwrist 0.253377
rhand -14.324 -395.338
rfingers 7.12502
rthumb 11.8166 -64.9843
lclavicle 5.11871e-015 -1.76918e-014
lhumerus -29.9617 11.3982 90.5794
lradius 43.1214
lwrist -2.56917
lhand -12.3202 -20.8296
lfingers 7.12502
lthumb 13.7484 8.69619
rfemur -46.2269 -11.2968 21.7047
rtibia 101.684
rfoot -34.926 -8.32181
rtoes 17.5528
lfemur -44.9764 9.28647 -12.2464
ltibia 107.412
lfoot -33.1619 -8.7546
ltoes -28.6099
877
root -0.364869 12.7062 14.3799 -10.8947 -1.76843 -2.5812
lowerback 24.8939 2.00668 -1.8358
upperback 5.89393 2.22536 1.07321
thorax -7.42394 1.09573 1.55041
lowerneck -6.98011 7.92714 5.49443
upperneck 27.2749 12.883 -9.19409
head 10.8967 5.50877 -2.7049
rclavicle 2.03257e-014 -8.15017e-015
rhumerus -5.41697 1.95457 -82.1442
rradius 44.0719
rwrist -0.722994
rhand -13.6013 -394.929
rfingers 7.12502
rthumb 12.5135 -64.534
lclavicle 2.03257e-014 -8.15017e-015
lhumerus -30.4538 9.70127 91.0643
lradius 42.4375
lwrist -4.78427
lhand -11.9895 -20.9991
lfingers 7.12502
lthumb 14.0671 8.50478
rfemur -45.0505 -11.3704 21.7391
rtibia 99.6389
rfoot -35.0439 -8.84953
rtoes 16.8277
lfemur -43.903 8.68826 -12.3788
ltibia 105.227
lfoot -33.442 -8.7196
ltoes -28.9655
878
root -0.369914 12.9838 14.5627 -9.99168 -1.30799 -2.50804
lowerback 24.4999 2.06521 -1.86886
upperback 5.71233 2.28307 0.849528
thorax -7.4188 1.12591 1.3125
lowerneck -6.86733 8.35821 5.9151
upperneck 26.9018 13.5768 -9.81925
head 10.8823 5.81742 -2.90491
rclavicle 2.31584e-014 -9.74045e-015
rhumerus -6.67849 1.59474 -82.0255
rradius 45.9329
rwrist -2.04597
rhand -12.5787 -394.451
rfingers 7.12502
rthumb 13.4993 -63.9935
lclavicle 2.31584e-014 -9.74045e-015
lhumerus -31.0287 8.49482 91.3014
lradius 42.0783
lwrist -6.40961
lhand -12.0772 -21.3048
lfingers 7.12502
lthumb 13.9826 8.20496
rfemur -43.6023 -11.4017 21.6348
rtibia 97.2266
rfoot -34.7914 -9.32754
rtoes 16.0888
lfemur -42.5949 8.15849 -12.7188
ltibia 102.702
lfoot -33.168 -8.49411
ltoes -28.9488
